<?xml version="1.0" encoding="utf-8"?>
<!-- Generator: Adobe Illustrator 16.2.0, SVG Export Plug-In . SVG Version: 6.00 Build 0)  -->
<!DOCTYPE svg PUBLIC "-//W3C//DTD SVG 1.1//EN" "http://www.w3.org/Graphics/SVG/1.1/DTD/svg11.dtd">
<svg version="1.1" id="Layer_2" xmlns="http://www.w3.org/2000/svg" xmlns:xlink="http://www.w3.org/1999/xlink" x="0px" y="0px"
	 width="152px" height="91px" viewBox="0 0 152 91" enable-background="new 0 0 152 91" xml:space="preserve">
<rect display="none" fill="#FFFFFF" width="152" height="91"/>
<g>
	<path fill="#E52C58" d="M63.766,30.682V26.65l14.554-0.023v12.75c-2.233,1.781-4.538,3.121-6.913,4.02s-4.813,1.348-7.313,1.348
		c-3.375,0-6.441-0.723-9.199-2.168c-2.758-1.445-4.84-3.535-6.246-6.27c-1.406-2.735-2.109-5.789-2.109-9.164
		c0-3.344,0.699-6.465,2.098-9.363c1.399-2.898,3.41-5.051,6.035-6.457c2.625-1.406,5.648-2.109,9.07-2.109
		c2.484,0,4.73,0.402,6.738,1.207c2.008,0.805,3.582,1.926,4.723,3.363s2.008,3.313,2.603,5.625l-4.103,1.125
		c-0.516-1.75-1.156-3.125-1.922-4.125c-0.766-1-1.859-1.801-3.281-2.402s-3-0.902-4.734-0.902c-2.078,0-3.875,0.316-5.391,0.949
		c-1.516,0.633-2.738,1.465-3.668,2.496c-0.93,1.031-1.652,2.164-2.168,3.398c-0.875,2.125-1.313,4.43-1.313,6.914
		c0,3.063,0.527,5.625,1.582,7.688c1.055,2.063,2.59,3.594,4.605,4.594s4.156,1.5,6.422,1.5c1.969,0,3.891-0.379,5.766-1.137
		c1.875-0.758,3.297-1.566,4.266-2.426v-6.398L63.766,30.682L63.766,30.682z"/>
	<path fill="#E52C58" d="M99.203,44.158h-4.219V17.275c-1.018,0.969-2.348,1.938-3.996,2.906c-1.648,0.968-3.129,1.695-4.441,2.18
		v-4.078c2.359-1.109,4.422-2.453,6.188-4.031c1.768-1.578,3.018-3.109,3.75-4.594h2.721L99.203,44.158L99.203,44.158z"/>
	<path fill="#E52C58" d="M27.172,78.689V58.089h13.896v2.433h-11.17V66.9h9.667v2.432h-9.667v9.357H27.172z"/>
	<path fill="#E52C58" d="M54.025,76.85c-0.937,0.797-1.839,1.358-2.705,1.688c-0.867,0.327-1.796,0.489-2.789,0.489
		c-1.64,0-2.899-0.398-3.78-1.199c-0.881-0.803-1.321-1.824-1.321-3.07c0-0.729,0.166-1.396,0.499-2.002s0.768-1.089,1.307-1.453
		c0.539-0.365,1.146-0.643,1.82-0.828c0.497-0.134,1.246-0.26,2.248-0.381c2.042-0.242,3.546-0.533,4.511-0.871
		c0.009-0.348,0.014-0.566,0.014-0.66c0-1.029-0.239-1.758-0.717-2.179c-0.646-0.569-1.606-0.856-2.88-0.856
		c-1.19,0-2.068,0.209-2.635,0.625c-0.567,0.418-0.986,1.156-1.258,2.214l-2.473-0.337c0.225-1.061,0.595-1.913,1.11-2.564
		c0.515-0.65,1.26-1.152,2.234-1.503c0.974-0.353,2.103-0.526,3.386-0.526c1.274,0,2.309,0.149,3.105,0.448
		c0.796,0.302,1.381,0.679,1.756,1.132c0.375,0.455,0.637,1.028,0.787,1.721c0.084,0.434,0.126,1.209,0.126,2.334v3.371
		c0,2.354,0.054,3.84,0.162,4.461c0.108,0.623,0.321,1.223,0.64,1.793H54.53C54.268,78.166,54.1,77.553,54.025,76.85z
		 M53.814,71.201c-0.918,0.375-2.295,0.693-4.131,0.955c-1.04,0.15-1.775,0.318-2.206,0.506s-0.764,0.462-0.998,0.822
		c-0.234,0.358-0.351,0.761-0.351,1.201c0,0.674,0.255,1.234,0.766,1.687c0.511,0.448,1.258,0.675,2.241,0.675
		c0.974,0,1.841-0.214,2.6-0.641c0.759-0.426,1.316-1.01,1.672-1.75c0.272-0.57,0.408-1.413,0.408-2.527L53.814,71.201
		L53.814,71.201z"/>
	<path fill="#E52C58" d="M59.28,74.236l2.501-0.396c0.141,1.003,0.532,1.771,1.173,2.306c0.642,0.533,1.539,0.801,2.691,0.801
		c1.162,0,2.023-0.235,2.585-0.709c0.562-0.473,0.843-1.027,0.843-1.666c0-0.57-0.249-1.02-0.745-1.348
		c-0.347-0.227-1.208-0.513-2.585-0.857c-1.854-0.469-3.14-0.873-3.857-1.215c-0.717-0.344-1.26-0.815-1.63-1.42
		c-0.37-0.604-0.555-1.271-0.555-2.002c0-0.666,0.152-1.281,0.457-1.85c0.304-0.564,0.719-1.035,1.243-1.41
		c0.394-0.291,0.93-0.537,1.609-0.738c0.679-0.201,1.408-0.303,2.185-0.303c1.171,0,2.199,0.17,3.084,0.506
		c0.885,0.338,1.539,0.795,1.96,1.371c0.422,0.574,0.712,1.346,0.871,2.312l-2.473,0.337c-0.113-0.768-0.438-1.367-0.977-1.799
		s-1.3-0.646-2.284-0.646c-1.162,0-1.991,0.192-2.487,0.576c-0.497,0.385-0.745,0.834-0.745,1.35c0,0.328,0.103,0.623,0.309,0.885
		c0.206,0.272,0.529,0.498,0.969,0.677c0.253,0.094,0.998,0.31,2.234,0.646c1.789,0.479,3.037,0.869,3.745,1.172
		c0.707,0.307,1.262,0.748,1.665,1.328c0.403,0.582,0.604,1.303,0.604,2.164c0,0.844-0.246,1.637-0.737,2.383
		c-0.492,0.744-1.202,1.319-2.129,1.729c-0.927,0.408-1.977,0.609-3.147,0.609c-1.939,0-3.417-0.4-4.433-1.207
		C60.209,77.014,59.561,75.818,59.28,74.236z"/>
	<path fill="#E52C58" d="M74.68,78.689V58.089h2.529v7.394c1.182-1.369,2.67-2.053,4.469-2.053c1.105,0,2.065,0.219,2.881,0.652
		c0.814,0.438,1.397,1.038,1.75,1.807c0.353,0.77,0.526,1.883,0.526,3.344v9.457h-2.528v-9.457c0-1.266-0.273-2.186-0.822-2.76
		c-0.549-0.576-1.322-0.865-2.324-0.865c-0.75,0-1.455,0.193-2.115,0.584c-0.66,0.389-1.131,0.916-1.412,1.58
		c-0.279,0.666-0.422,1.584-0.422,2.754v8.164H74.68z"/>
	<path fill="#E52C58" d="M90.697,61v-2.909h2.529V61H90.697z M90.697,78.689V63.768h2.529v14.922H90.697L90.697,78.689z"/>
	<path fill="#E52C58" d="M96.137,71.229c0-2.764,0.768-4.811,2.305-6.141c1.283-1.105,2.849-1.658,4.692-1.658
		c2.052,0,3.729,0.672,5.03,2.018c1.302,1.345,1.953,3.201,1.953,5.57c0,1.92-0.288,3.433-0.864,4.531
		c-0.575,1.1-1.414,1.956-2.515,2.564c-1.102,0.607-2.303,0.912-3.604,0.912c-2.089,0-3.776-0.668-5.065-2.008
		C96.781,75.678,96.137,73.749,96.137,71.229z M98.734,71.229c0,1.912,0.418,3.342,1.252,4.293s1.883,1.428,3.146,1.428
		c1.257,0,2.302-0.479,3.136-1.436c0.832-0.955,1.25-2.412,1.25-4.369c0-1.846-0.42-3.244-1.26-4.193
		c-0.838-0.95-1.88-1.428-3.126-1.428c-1.265,0-2.313,0.475-3.146,1.42C99.152,67.889,98.734,69.318,98.734,71.229z"/>
	<path fill="#E52C58" d="M113.082,78.689V63.768h2.275v2.123c1.098-1.641,2.681-2.459,4.75-2.459c0.898,0,1.727,0.16,2.479,0.483
		s1.316,0.747,1.691,1.272c0.375,0.522,0.639,1.146,0.787,1.867c0.096,0.469,0.143,1.287,0.143,2.459v9.176h-2.527v-9.076
		c0-1.03-0.101-1.801-0.297-2.313c-0.195-0.511-0.546-0.918-1.047-1.223c-0.502-0.306-1.089-0.456-1.764-0.456
		c-1.077,0-2.008,0.342-2.789,1.023c-0.782,0.685-1.176,1.981-1.176,3.895v8.148h-2.525V78.689z"/>
</g>
</svg>
