<?xml version="1.0" encoding="utf-8"?>
<!-- Generator: Adobe Illustrator 16.2.0, SVG Export Plug-In . SVG Version: 6.00 Build 0)  -->
<!DOCTYPE svg PUBLIC "-//W3C//DTD SVG 1.1//EN" "http://www.w3.org/Graphics/SVG/1.1/DTD/svg11.dtd">
<svg version="1.1" id="Layer_2" xmlns="http://www.w3.org/2000/svg" xmlns:xlink="http://www.w3.org/1999/xlink" x="0px" y="0px"
	 width="152px" height="91px" viewBox="0 0 152 91" enable-background="new 0 0 152 91" xml:space="preserve">
<rect display="none" fill="#FFFFFF" width="152" height="91"/>
<g>
	<path fill="#E52C58" d="M13.478,45.096v-2.417l8.726-0.014v7.644c-1.34,1.067-2.722,1.871-4.146,2.41
		c-1.424,0.538-2.885,0.809-4.384,0.809c-2.023,0-3.862-0.434-5.515-1.301c-1.653-0.865-2.902-2.119-3.745-3.758
		c-0.843-1.641-1.265-3.472-1.265-5.495c0-2.005,0.419-3.876,1.257-5.614c0.838-1.737,2.044-3.028,3.618-3.871
		c1.574-0.843,3.387-1.265,5.438-1.265c1.49,0,2.836,0.241,4.04,0.724c1.204,0.483,2.147,1.155,2.831,2.017
		c0.684,0.862,1.204,1.986,1.56,3.372l-2.459,0.675c-0.309-1.049-0.693-1.874-1.152-2.473c-0.459-0.599-1.115-1.08-1.967-1.44
		c-0.853-0.36-1.799-0.541-2.838-0.541c-1.246,0-2.323,0.19-3.232,0.569c-0.909,0.379-1.642,0.878-2.199,1.496
		c-0.558,0.619-0.991,1.298-1.3,2.038c-0.525,1.274-0.787,2.656-0.787,4.145c0,1.836,0.316,3.372,0.949,4.609
		c0.632,1.235,1.552,2.153,2.761,2.754s2.492,0.899,3.85,0.899c1.181,0,2.333-0.229,3.457-0.682
		c1.125-0.455,1.977-0.939,2.558-1.455v-3.835H13.478z"/>
	<path fill="#E52C58" d="M34.724,53.176h-2.529V37.059c-0.609,0.581-1.408,1.162-2.396,1.742c-0.989,0.581-1.876,1.017-2.663,1.307
		v-2.445c1.415-0.665,2.651-1.471,3.709-2.417c1.059-0.946,1.808-1.864,2.249-2.754h1.63V53.176z"/>
	<path fill="#E52C58" d="M50.363,53.176V32.577H64.26v2.431H53.089v6.379h9.667v2.431h-9.667v9.358H50.363z"/>
	<path fill="#E52C58" d="M77.215,51.335c-0.937,0.797-1.838,1.358-2.705,1.687c-0.867,0.328-1.796,0.492-2.789,0.492
		c-1.64,0-2.899-0.4-3.78-1.201s-1.321-1.824-1.321-3.07c0-0.73,0.166-1.396,0.499-2.002s0.768-1.09,1.307-1.454
		c0.539-0.366,1.146-0.642,1.82-0.83c0.497-0.131,1.246-0.257,2.248-0.379c2.042-0.243,3.546-0.534,4.51-0.871
		c0.01-0.346,0.014-0.566,0.014-0.66c0-1.031-0.238-1.757-0.715-2.178c-0.646-0.571-1.606-0.857-2.88-0.857
		c-1.19,0-2.068,0.208-2.635,0.625s-0.986,1.155-1.258,2.213l-2.473-0.337c0.225-1.059,0.595-1.913,1.11-2.564
		c0.515-0.651,1.26-1.152,2.234-1.503c0.974-0.351,2.103-0.527,3.386-0.527c1.274,0,2.309,0.15,3.106,0.45
		c0.795,0.3,1.381,0.677,1.756,1.131c0.375,0.455,0.637,1.028,0.787,1.722c0.084,0.431,0.127,1.208,0.127,2.333v3.372
		c0,2.352,0.053,3.84,0.16,4.461c0.106,0.623,0.321,1.221,0.641,1.793h-2.643C77.459,52.65,77.289,52.038,77.215,51.335z
		 M77.004,45.687c-0.918,0.375-2.295,0.693-4.131,0.956c-1.04,0.149-1.775,0.318-2.206,0.506s-0.764,0.461-0.998,0.822
		c-0.234,0.359-0.351,0.76-0.351,1.2c0,0.675,0.255,1.236,0.766,1.687c0.511,0.449,1.258,0.676,2.241,0.676
		c0.974,0,1.841-0.215,2.6-0.641c0.759-0.427,1.316-1.01,1.673-1.75c0.271-0.57,0.406-1.414,0.406-2.527V45.687z"/>
	<path fill="#E52C58" d="M82.471,48.723l2.502-0.395c0.141,1.002,0.53,1.771,1.172,2.305c0.643,0.533,1.539,0.801,2.691,0.801
		c1.161,0,2.021-0.236,2.585-0.709c0.563-0.474,0.843-1.027,0.843-1.666c0-0.57-0.248-1.021-0.744-1.349
		c-0.347-0.226-1.209-0.511-2.586-0.856c-1.854-0.469-3.141-0.874-3.855-1.215c-0.717-0.343-1.262-0.815-1.631-1.419
		c-0.37-0.604-0.555-1.272-0.555-2.002c0-0.665,0.151-1.281,0.457-1.848c0.303-0.567,0.719-1.038,1.242-1.413
		c0.395-0.29,0.93-0.536,1.609-0.737c0.679-0.202,1.406-0.302,2.186-0.302c1.17,0,2.198,0.168,3.084,0.506
		c0.885,0.337,1.538,0.794,1.961,1.37c0.42,0.576,0.711,1.347,0.871,2.312l-2.475,0.337c-0.112-0.768-0.438-1.368-0.977-1.798
		c-0.539-0.431-1.301-0.646-2.283-0.646c-1.161,0-1.99,0.192-2.487,0.576c-0.496,0.384-0.744,0.834-0.744,1.349
		c0,0.328,0.103,0.624,0.31,0.885c0.205,0.272,0.528,0.497,0.97,0.675c0.253,0.094,0.997,0.309,2.233,0.646
		c1.789,0.478,3.037,0.869,3.744,1.173c0.709,0.305,1.264,0.747,1.666,1.328s0.604,1.302,0.604,2.164
		c0,0.843-0.245,1.638-0.736,2.382c-0.492,0.744-1.201,1.32-2.129,1.729s-1.977,0.611-3.146,0.611c-1.939,0-3.418-0.402-4.435-1.209
		C83.4,51.501,82.751,50.305,82.471,48.723z"/>
	<path fill="#E52C58" d="M97.87,53.176V32.577h2.528v7.391c1.182-1.367,2.67-2.051,4.47-2.051c1.104,0,2.065,0.218,2.881,0.653
		c0.813,0.436,1.397,1.038,1.749,1.806s0.527,1.883,0.527,3.344v9.458h-2.529V43.72c0-1.265-0.273-2.185-0.822-2.761
		c-0.548-0.576-1.322-0.864-2.324-0.864c-0.75,0-1.455,0.195-2.115,0.583c-0.66,0.388-1.131,0.916-1.412,1.581
		c-0.281,0.666-0.422,1.583-0.422,2.754v8.165h-2.53V53.176z"/>
	<path fill="#E52C58" d="M113.891,35.485v-2.908h2.528v2.908H113.891z M113.891,53.176V38.253h2.528v14.922L113.891,53.176
		L113.891,53.176z"/>
	<path fill="#E52C58" d="M119.327,45.715c0-2.764,0.769-4.811,2.305-6.141c1.283-1.105,2.849-1.658,4.693-1.658
		c2.052,0,3.729,0.672,5.03,2.016c1.302,1.345,1.953,3.202,1.953,5.572c0,1.92-0.289,3.432-0.865,4.531
		c-0.575,1.1-1.414,1.956-2.514,2.564c-1.103,0.607-2.304,0.912-3.604,0.912c-2.089,0-3.777-0.669-5.065-2.009
		C119.973,50.163,119.327,48.234,119.327,45.715z M121.928,45.715c0,1.911,0.416,3.342,1.25,4.292
		c0.834,0.951,1.883,1.427,3.147,1.427c1.255,0,2.3-0.478,3.134-1.434c0.833-0.955,1.25-2.412,1.25-4.37
		c0-1.845-0.419-3.243-1.258-4.194c-0.838-0.951-1.881-1.426-3.126-1.426c-1.265,0-2.313,0.473-3.147,1.419
		C122.344,42.375,121.928,43.804,121.928,45.715z"/>
	<path fill="#E52C58" d="M136.271,53.176V38.253h2.276v2.122c1.097-1.639,2.681-2.459,4.75-2.459c0.899,0,1.726,0.162,2.479,0.485
		c0.752,0.323,1.318,0.747,1.693,1.271c0.375,0.525,0.637,1.147,0.786,1.869c0.095,0.469,0.142,1.289,0.142,2.459v9.176h-2.529
		v-9.077c0-1.03-0.1-1.801-0.295-2.312c-0.197-0.51-0.547-0.918-1.047-1.223c-0.502-0.304-1.09-0.457-1.764-0.457
		c-1.078,0-2.008,0.342-2.789,1.026c-0.783,0.684-1.175,1.981-1.175,3.892v8.15L136.271,53.176L136.271,53.176z"/>
</g>
</svg>
