<?xml version="1.0" encoding="utf-8"?>
<!-- Generator: Adobe Illustrator 16.2.0, SVG Export Plug-In . SVG Version: 6.00 Build 0)  -->
<!DOCTYPE svg PUBLIC "-//W3C//DTD SVG 1.1//EN" "http://www.w3.org/Graphics/SVG/1.1/DTD/svg11.dtd">
<svg version="1.1" id="Layer_2" xmlns="http://www.w3.org/2000/svg" xmlns:xlink="http://www.w3.org/1999/xlink" x="0px" y="0px"
	 width="355.333px" height="91px" viewBox="0 0 355.333 91" enable-background="new 0 0 355.333 91" xml:space="preserve">
<rect display="none" fill="#FFFFFF" width="152" height="91"/>
<g>
	<path fill="#E52C58" d="M25.966,50.807V44.92l21.25-0.033v18.612c-3.265,2.601-6.629,4.56-10.097,5.871
		c-3.468,1.31-7.026,1.967-10.676,1.967c-4.926,0-9.404-1.056-13.429-3.166c-4.026-2.106-7.068-5.159-9.121-9.151
		C1.84,55.025,0.812,50.566,0.812,45.64c0-4.882,1.02-9.438,3.061-13.672c2.042-4.229,4.979-7.373,8.811-9.427
		c3.833-2.052,8.248-3.08,13.243-3.08c3.629,0,6.906,0.586,9.837,1.762c2.933,1.177,5.229,2.813,6.895,4.912
		c1.666,2.1,2.933,4.836,3.799,8.211L40.47,35.99c-0.752-2.555-1.688-4.563-2.806-6.021c-1.118-1.459-2.715-2.63-4.789-3.507
		c-2.078-0.877-4.381-1.317-6.911-1.317c-3.034,0-5.658,0.462-7.87,1.385c-2.215,0.923-3.999,2.138-5.356,3.644
		c-1.358,1.507-2.413,3.16-3.165,4.963c-1.278,3.103-1.917,6.467-1.917,10.095c0,4.471,0.77,8.208,2.313,11.223
		c1.539,3.008,3.779,5.243,6.724,6.707c2.944,1.461,6.069,2.188,9.375,2.188c2.876,0,5.681-0.557,8.418-1.66
		c2.741-1.106,4.814-2.287,6.23-3.543v-9.34H25.966L25.966,50.807z"/>
	<path fill="#E52C58" d="M77.705,70.482h-6.159V31.235c-1.483,1.415-3.428,2.83-5.834,4.241c-2.408,1.415-4.568,2.478-6.484,3.183
		v-5.953c3.445-1.62,6.456-3.583,9.032-5.886c2.579-2.305,4.402-4.54,5.478-6.707h3.968L77.705,70.482L77.705,70.482z"/>
	<path fill="#E52C58" d="M115.788,70.482V20.321h33.843v5.919h-27.204v15.535h23.54v5.918h-23.54v22.789H115.788z"/>
	<path fill="#E52C58" d="M181.178,65.999c-2.283,1.94-4.478,3.31-6.589,4.106c-2.11,0.801-4.373,1.199-6.791,1.199
		c-3.993,0-7.06-0.977-9.205-2.926c-2.146-1.951-3.217-4.443-3.217-7.479c0-1.777,0.404-3.398,1.216-4.875
		c0.811-1.473,1.87-2.652,3.182-3.541c1.313-0.892,2.791-1.563,4.433-2.021c1.211-0.316,3.034-0.623,5.475-0.92
		c4.973-0.596,8.634-1.303,10.98-2.121c0.022-0.846,0.034-1.379,0.034-1.608c0-2.511-0.579-4.278-1.743-5.304
		c-1.573-1.391-3.911-2.086-7.013-2.086c-2.898,0-5.037,0.506-6.417,1.521c-1.381,1.016-2.401,2.813-3.063,5.389l-6.022-0.82
		c0.547-2.579,1.448-4.658,2.703-6.244s3.067-2.806,5.44-3.661c2.372-0.854,5.12-1.283,8.245-1.283c3.103,0,5.625,0.366,7.563,1.097
		c1.938,0.73,3.362,1.648,4.276,2.754c0.912,1.108,1.551,2.503,1.916,4.194c0.205,1.048,0.31,2.941,0.31,5.68v8.211
		c0,5.729,0.129,9.354,0.392,10.863c0.26,1.52,0.782,2.975,1.561,4.366h-6.436C181.772,69.202,181.358,67.712,181.178,65.999z
		 M180.663,52.247c-2.233,0.912-5.587,1.688-10.059,2.325c-2.533,0.365-4.322,0.773-5.372,1.23s-1.861,1.123-2.431,2.004
		c-0.569,0.873-0.855,1.851-0.855,2.924c0,1.644,0.621,3.01,1.865,4.105c1.246,1.092,3.063,1.645,5.458,1.645
		c2.372,0,4.483-0.521,6.331-1.559c1.849-1.041,3.206-2.461,4.072-4.262c0.662-1.391,0.99-3.443,0.99-6.154V52.247L180.663,52.247z"
		/>
	<path fill="#E52C58" d="M193.977,59.639l6.092-0.961c0.344,2.439,1.291,4.313,2.854,5.612c1.563,1.297,3.748,1.948,6.555,1.948
		c2.828,0,4.924-0.575,6.295-1.727c1.373-1.152,2.053-2.502,2.053-4.059c0-1.389-0.604-2.484-1.813-3.283
		c-0.846-0.549-2.943-1.244-6.297-2.086c-4.516-1.143-7.648-2.127-9.391-2.961c-1.744-0.834-3.072-1.982-3.972-3.455
		S195,45.57,195,43.793c0-1.618,0.369-3.119,1.113-4.499c0.736-1.381,1.75-2.528,3.025-3.44c0.959-0.707,2.264-1.307,3.918-1.795
		c1.652-0.492,3.426-0.736,5.322-0.736c2.85,0,5.354,0.409,7.51,1.232c2.154,0.821,3.746,1.934,4.775,3.336
		c1.021,1.403,1.729,3.28,2.121,5.63l-6.025,0.821c-0.273-1.87-1.064-3.331-2.379-4.378c-1.313-1.05-3.168-1.573-5.561-1.573
		c-2.828,0-4.847,0.468-6.058,1.403c-1.209,0.935-1.813,2.03-1.813,3.283c0,0.8,0.25,1.52,0.754,2.157
		c0.5,0.662,1.287,1.209,2.361,1.644c0.615,0.229,2.428,0.752,5.438,1.571c4.357,1.164,7.396,2.117,9.117,2.855
		c1.728,0.742,3.078,1.818,4.06,3.232c0.979,1.416,1.469,3.172,1.469,5.271c0,2.051-0.596,3.987-1.793,5.801
		c-1.196,1.813-2.924,3.217-5.185,4.209c-2.26,0.994-4.813,1.488-7.662,1.488c-4.725,0-8.323-0.98-10.799-2.943
		C196.239,66.404,194.659,63.49,193.977,59.639z"/>
	<path fill="#E52C58" d="M231.475,70.482V20.321h6.156v17.997c2.881-3.328,6.504-4.994,10.885-4.994c2.691,0,5.031,0.532,7.018,1.59
		c1.98,1.062,3.402,2.528,4.258,4.398c0.857,1.87,1.285,4.585,1.285,8.146v23.028h-6.158V47.458c0-3.083-0.668-5.322-2.004-6.726
		c-1.334-1.403-3.219-2.104-5.66-2.104c-1.823,0-3.543,0.475-5.147,1.42c-1.608,0.943-2.756,2.23-3.438,3.849
		c-0.685,1.623-1.027,3.855-1.027,6.707v19.883h-6.162v-0.004H231.475z"/>
	<path fill="#E52C58" d="M270.489,27.401v-7.08h6.156v7.08H270.489z M270.489,70.482v-36.34h6.156V70.48h-6.156V70.482z"/>
	<path fill="#E52C58" d="M283.727,52.313c0-6.729,1.871-11.715,5.611-14.953c3.125-2.69,6.938-4.038,11.432-4.038
		c4.996,0,9.082,1.636,12.248,4.909c3.172,3.275,4.756,7.796,4.756,13.568c0,4.676-0.703,8.355-2.105,11.035
		c-1.399,2.678-3.44,4.762-6.121,6.244c-2.686,1.479-5.608,2.221-8.776,2.221c-5.086,0-9.199-1.629-12.334-4.893
		C285.299,63.146,283.727,58.45,283.727,52.313z M290.061,52.313c0,4.654,1.014,8.14,3.045,10.453
		c2.029,2.314,4.584,3.475,7.664,3.475c3.055,0,5.6-1.163,7.631-3.491c2.029-2.326,3.043-5.875,3.043-10.644
		c0-4.49-1.02-7.896-3.063-10.211c-2.041-2.316-4.58-3.473-7.611-3.473c-3.08,0-5.635,1.151-7.664,3.455
		C291.073,44.182,290.061,47.661,290.061,52.313z"/>
	<path fill="#E52C58" d="M324.989,70.482v-36.34h5.543v5.167c2.672-3.991,6.527-5.987,11.568-5.987c2.189,0,4.199,0.395,6.037,1.181
		c1.83,0.787,3.211,1.819,4.125,3.096c0.912,1.277,1.551,2.792,1.912,4.551c0.231,1.143,0.346,3.139,0.346,5.987v22.346h-6.158
		V48.378c0-2.508-0.244-4.387-0.719-5.629c-0.48-1.242-1.332-2.235-2.549-2.979c-1.225-0.74-2.654-1.112-4.297-1.112
		c-2.625,0-4.889,0.833-6.791,2.498c-1.906,1.665-2.861,4.824-2.861,9.477V70.48h-6.156V70.482z"/>
</g>
</svg>
